<mxfile host="Electron" modified="2024-06-17T15:08:30.432Z" agent="Mozilla/5.0 (Windows NT 10.0; Win64; x64) AppleWebKit/537.36 (KHTML, like Gecko) draw.io/24.5.3 Chrome/124.0.6367.207 Electron/30.0.6 Safari/537.36" etag="pv3qrPaXRBxQoRy8ulXR" version="24.5.3" type="device">
  <diagram id="C5RBs43oDa-KdzZeNtuy" name="Page-1">
    <mxGraphModel dx="1098" dy="940" grid="1" gridSize="10" guides="1" tooltips="1" connect="1" arrows="1" fold="1" page="1" pageScale="1" pageWidth="827" pageHeight="1169" math="0" shadow="0">
      <root>
        <mxCell id="WIyWlLk6GJQsqaUBKTNV-0" />
        <mxCell id="WIyWlLk6GJQsqaUBKTNV-1" parent="WIyWlLk6GJQsqaUBKTNV-0" />
        <mxCell id="sWLMiuLzpLwCTFbv1_CV-1" style="edgeStyle=orthogonalEdgeStyle;rounded=0;orthogonalLoop=1;jettySize=auto;html=1;exitX=0.5;exitY=1;exitDx=0;exitDy=0;" edge="1" parent="WIyWlLk6GJQsqaUBKTNV-1" source="sWLMiuLzpLwCTFbv1_CV-0">
          <mxGeometry relative="1" as="geometry">
            <mxPoint x="400" y="170" as="targetPoint" />
          </mxGeometry>
        </mxCell>
        <mxCell id="sWLMiuLzpLwCTFbv1_CV-0" value="Start" style="ellipse;whiteSpace=wrap;html=1;" vertex="1" parent="WIyWlLk6GJQsqaUBKTNV-1">
          <mxGeometry x="340" y="40" width="120" height="80" as="geometry" />
        </mxCell>
        <mxCell id="sWLMiuLzpLwCTFbv1_CV-4" style="edgeStyle=orthogonalEdgeStyle;rounded=0;orthogonalLoop=1;jettySize=auto;html=1;exitX=0.5;exitY=1;exitDx=0;exitDy=0;entryX=0.5;entryY=0;entryDx=0;entryDy=0;" edge="1" parent="WIyWlLk6GJQsqaUBKTNV-1" source="sWLMiuLzpLwCTFbv1_CV-2" target="sWLMiuLzpLwCTFbv1_CV-3">
          <mxGeometry relative="1" as="geometry" />
        </mxCell>
        <mxCell id="sWLMiuLzpLwCTFbv1_CV-2" value="Console.WriteLine(&lt;span class=&quot;hljs-string&quot;&gt;&quot;Sisesta tekst, mida soovid salvestada:&quot;&lt;/span&gt;);&lt;br/&gt;    &lt;span class=&quot;hljs-built_in&quot;&gt;string&lt;/span&gt; text = Console.ReadLine();" style="rounded=1;whiteSpace=wrap;html=1;" vertex="1" parent="WIyWlLk6GJQsqaUBKTNV-1">
          <mxGeometry x="300" y="170" width="210" height="100" as="geometry" />
        </mxCell>
        <mxCell id="sWLMiuLzpLwCTFbv1_CV-5" style="edgeStyle=orthogonalEdgeStyle;rounded=0;orthogonalLoop=1;jettySize=auto;html=1;exitX=0.5;exitY=1;exitDx=0;exitDy=0;" edge="1" parent="WIyWlLk6GJQsqaUBKTNV-1" source="sWLMiuLzpLwCTFbv1_CV-3">
          <mxGeometry relative="1" as="geometry">
            <mxPoint x="405" y="530" as="targetPoint" />
          </mxGeometry>
        </mxCell>
        <mxCell id="sWLMiuLzpLwCTFbv1_CV-3" value="Console.WriteLine(&lt;span class=&quot;hljs-string&quot;&gt;&quot;Sisesta faili asukoht:&quot;&lt;/span&gt;);&lt;br/&gt;    &lt;span class=&quot;hljs-built_in&quot;&gt;string&lt;/span&gt; filePath = Console.ReadLine();" style="rounded=1;whiteSpace=wrap;html=1;" vertex="1" parent="WIyWlLk6GJQsqaUBKTNV-1">
          <mxGeometry x="300" y="340" width="210" height="100" as="geometry" />
        </mxCell>
        <mxCell id="sWLMiuLzpLwCTFbv1_CV-9" style="edgeStyle=orthogonalEdgeStyle;rounded=0;orthogonalLoop=1;jettySize=auto;html=1;exitX=1;exitY=0;exitDx=0;exitDy=0;" edge="1" parent="WIyWlLk6GJQsqaUBKTNV-1" source="sWLMiuLzpLwCTFbv1_CV-7" target="sWLMiuLzpLwCTFbv1_CV-10">
          <mxGeometry relative="1" as="geometry">
            <mxPoint x="600" y="558" as="targetPoint" />
          </mxGeometry>
        </mxCell>
        <mxCell id="sWLMiuLzpLwCTFbv1_CV-14" style="edgeStyle=orthogonalEdgeStyle;rounded=0;orthogonalLoop=1;jettySize=auto;html=1;exitX=0.5;exitY=1;exitDx=0;exitDy=0;" edge="1" parent="WIyWlLk6GJQsqaUBKTNV-1" source="sWLMiuLzpLwCTFbv1_CV-7">
          <mxGeometry relative="1" as="geometry">
            <mxPoint x="405" y="750" as="targetPoint" />
          </mxGeometry>
        </mxCell>
        <mxCell id="sWLMiuLzpLwCTFbv1_CV-7" value="try" style="rhombus;whiteSpace=wrap;html=1;" vertex="1" parent="WIyWlLk6GJQsqaUBKTNV-1">
          <mxGeometry x="340" y="530" width="130" height="110" as="geometry" />
        </mxCell>
        <mxCell id="sWLMiuLzpLwCTFbv1_CV-10" value="File.WriteAllText(filePath, text);&lt;br/&gt;        Console.WriteLine(&lt;span class=&quot;hljs-string&quot;&gt;&quot;Tekst salvestati edukalt.&quot;&lt;/span&gt;);" style="rounded=1;whiteSpace=wrap;html=1;" vertex="1" parent="WIyWlLk6GJQsqaUBKTNV-1">
          <mxGeometry x="610" y="500" width="150" height="120" as="geometry" />
        </mxCell>
        <mxCell id="sWLMiuLzpLwCTFbv1_CV-12" value="true" style="text;html=1;align=center;verticalAlign=middle;resizable=0;points=[];autosize=1;strokeColor=none;fillColor=none;" vertex="1" parent="WIyWlLk6GJQsqaUBKTNV-1">
          <mxGeometry x="500" y="508" width="40" height="30" as="geometry" />
        </mxCell>
        <mxCell id="sWLMiuLzpLwCTFbv1_CV-17" style="edgeStyle=orthogonalEdgeStyle;rounded=0;orthogonalLoop=1;jettySize=auto;html=1;exitX=1;exitY=0.5;exitDx=0;exitDy=0;" edge="1" parent="WIyWlLk6GJQsqaUBKTNV-1" source="sWLMiuLzpLwCTFbv1_CV-16" target="sWLMiuLzpLwCTFbv1_CV-18">
          <mxGeometry relative="1" as="geometry">
            <mxPoint x="590" y="805" as="targetPoint" />
          </mxGeometry>
        </mxCell>
        <mxCell id="sWLMiuLzpLwCTFbv1_CV-16" value="Catch" style="rhombus;whiteSpace=wrap;html=1;" vertex="1" parent="WIyWlLk6GJQsqaUBKTNV-1">
          <mxGeometry x="340" y="750" width="130" height="110" as="geometry" />
        </mxCell>
        <mxCell id="sWLMiuLzpLwCTFbv1_CV-18" value="Console.WriteLine(&lt;span class=&quot;hljs-string&quot;&gt;$&quot;Tekkis viga: &lt;span class=&quot;hljs-subst&quot;&gt;{ex.Message}&lt;/span&gt;&quot;&lt;/span&gt;);" style="rounded=1;whiteSpace=wrap;html=1;" vertex="1" parent="WIyWlLk6GJQsqaUBKTNV-1">
          <mxGeometry x="610" y="750" width="150" height="110" as="geometry" />
        </mxCell>
        <mxCell id="sWLMiuLzpLwCTFbv1_CV-19" value="false" style="text;html=1;align=center;verticalAlign=middle;resizable=0;points=[];autosize=1;strokeColor=none;fillColor=none;" vertex="1" parent="WIyWlLk6GJQsqaUBKTNV-1">
          <mxGeometry x="505" y="758" width="50" height="30" as="geometry" />
        </mxCell>
      </root>
    </mxGraphModel>
  </diagram>
</mxfile>
